<mxfile host="app.diagrams.net" modified="2024-03-26T20:42:06.296Z" agent="Mozilla/5.0 (Windows NT 10.0; Win64; x64) AppleWebKit/537.36 (KHTML, like Gecko) Chrome/123.0.0.0 Safari/537.36" etag="UjS3Fpxj7MkTymz52e9F" version="24.1.0" type="device">
  <diagram name="Page-1" id="LbJUKonwbourqvJiCGiW">
    <mxGraphModel dx="1050" dy="565" grid="0" gridSize="10" guides="1" tooltips="1" connect="1" arrows="1" fold="1" page="1" pageScale="1" pageWidth="850" pageHeight="1100" math="0" shadow="0">
      <root>
        <mxCell id="0" />
        <mxCell id="1" parent="0" />
        <mxCell id="G7QfSokvVwDWU3bzImGe-1" value="&lt;b&gt;Start&lt;/b&gt;" style="ellipse;whiteSpace=wrap;html=1;fillColor=#fff2cc;strokeColor=#d6b656;" parent="1" vertex="1">
          <mxGeometry x="145" y="60" width="90" height="50" as="geometry" />
        </mxCell>
        <mxCell id="G7QfSokvVwDWU3bzImGe-4" value="" style="endArrow=classic;html=1;rounded=0;entryX=0.5;entryY=0;entryDx=0;entryDy=0;exitX=0.5;exitY=1;exitDx=0;exitDy=0;" parent="1" source="G7QfSokvVwDWU3bzImGe-1" target="G7QfSokvVwDWU3bzImGe-5" edge="1">
          <mxGeometry width="50" height="50" relative="1" as="geometry">
            <mxPoint x="390" y="130" as="sourcePoint" />
            <mxPoint x="415" y="160" as="targetPoint" />
          </mxGeometry>
        </mxCell>
        <mxCell id="G7QfSokvVwDWU3bzImGe-5" value="&lt;b&gt;Login&lt;/b&gt;" style="rounded=0;whiteSpace=wrap;html=1;fillColor=#d5e8d4;strokeColor=#82b366;" parent="1" vertex="1">
          <mxGeometry x="130" y="180" width="120" height="40" as="geometry" />
        </mxCell>
        <mxCell id="G7QfSokvVwDWU3bzImGe-10" value="&lt;b&gt;Username/Email and&amp;nbsp;&lt;/b&gt;&lt;div&gt;&lt;b&gt;Password&lt;/b&gt;&lt;/div&gt;" style="shape=parallelogram;perimeter=parallelogramPerimeter;whiteSpace=wrap;html=1;fixedSize=1;fillColor=#dae8fc;strokeColor=#6c8ebf;" parent="1" vertex="1">
          <mxGeometry x="110" y="260" width="180" height="40" as="geometry" />
        </mxCell>
        <mxCell id="G7QfSokvVwDWU3bzImGe-11" value="" style="endArrow=classic;html=1;rounded=0;exitX=0.5;exitY=1;exitDx=0;exitDy=0;entryX=0.449;entryY=0.005;entryDx=0;entryDy=0;entryPerimeter=0;" parent="1" source="G7QfSokvVwDWU3bzImGe-5" target="G7QfSokvVwDWU3bzImGe-10" edge="1">
          <mxGeometry width="50" height="50" relative="1" as="geometry">
            <mxPoint x="260" y="250" as="sourcePoint" />
            <mxPoint x="310" y="200" as="targetPoint" />
          </mxGeometry>
        </mxCell>
        <mxCell id="G7QfSokvVwDWU3bzImGe-12" value="&lt;b&gt;Succeed&lt;/b&gt;&lt;div&gt;&lt;b&gt;?&lt;/b&gt;&lt;/div&gt;" style="rhombus;whiteSpace=wrap;html=1;fillColor=#76608a;strokeColor=#432D57;fontColor=#ffffff;" parent="1" vertex="1">
          <mxGeometry x="145" y="340" width="90" height="80" as="geometry" />
        </mxCell>
        <mxCell id="G7QfSokvVwDWU3bzImGe-13" value="" style="endArrow=classic;html=1;rounded=0;exitX=0.5;exitY=1;exitDx=0;exitDy=0;entryX=0.449;entryY=0.005;entryDx=0;entryDy=0;entryPerimeter=0;" parent="1" edge="1">
          <mxGeometry width="50" height="50" relative="1" as="geometry">
            <mxPoint x="189.5" y="300" as="sourcePoint" />
            <mxPoint x="190.5" y="340" as="targetPoint" />
          </mxGeometry>
        </mxCell>
        <mxCell id="G7QfSokvVwDWU3bzImGe-17" value="&lt;b&gt;Forgot Password&lt;/b&gt;" style="rounded=0;whiteSpace=wrap;html=1;fillColor=#d5e8d4;strokeColor=#82b366;" parent="1" vertex="1">
          <mxGeometry x="270" y="450" width="110" height="40" as="geometry" />
        </mxCell>
        <mxCell id="G7QfSokvVwDWU3bzImGe-18" value="" style="endArrow=classic;html=1;rounded=0;exitX=1;exitY=0.5;exitDx=0;exitDy=0;entryX=0;entryY=0.5;entryDx=0;entryDy=0;" parent="1" target="G7QfSokvVwDWU3bzImGe-29" edge="1">
          <mxGeometry width="50" height="50" relative="1" as="geometry">
            <mxPoint x="235" y="379.5" as="sourcePoint" />
            <mxPoint x="300" y="380" as="targetPoint" />
          </mxGeometry>
        </mxCell>
        <mxCell id="-zH0hV0j0Uq1G4DISYLY-56" style="edgeStyle=orthogonalEdgeStyle;rounded=0;orthogonalLoop=1;jettySize=auto;html=1;entryX=0;entryY=0.5;entryDx=0;entryDy=0;" edge="1" parent="1" source="G7QfSokvVwDWU3bzImGe-20" target="-zH0hV0j0Uq1G4DISYLY-38">
          <mxGeometry relative="1" as="geometry" />
        </mxCell>
        <mxCell id="G7QfSokvVwDWU3bzImGe-20" value="&lt;b&gt;Email&lt;/b&gt;" style="shape=parallelogram;perimeter=parallelogramPerimeter;whiteSpace=wrap;html=1;fixedSize=1;fillColor=#dae8fc;strokeColor=#6c8ebf;" parent="1" vertex="1">
          <mxGeometry x="256.25" y="530" width="127.5" height="40" as="geometry" />
        </mxCell>
        <mxCell id="G7QfSokvVwDWU3bzImGe-24" value="&lt;b&gt;YES&lt;/b&gt;&lt;div&gt;&lt;br&gt;&lt;/div&gt;" style="text;html=1;align=center;verticalAlign=middle;whiteSpace=wrap;rounded=0;" parent="1" vertex="1">
          <mxGeometry x="140" y="440" width="60" height="30" as="geometry" />
        </mxCell>
        <mxCell id="G7QfSokvVwDWU3bzImGe-26" value="&lt;b&gt;NO&lt;/b&gt;" style="text;html=1;align=center;verticalAlign=middle;whiteSpace=wrap;rounded=0;" parent="1" vertex="1">
          <mxGeometry x="250" y="355" width="60" height="30" as="geometry" />
        </mxCell>
        <mxCell id="G7QfSokvVwDWU3bzImGe-110" style="edgeStyle=orthogonalEdgeStyle;rounded=0;orthogonalLoop=1;jettySize=auto;html=1;" parent="1" source="G7QfSokvVwDWU3bzImGe-27" edge="1">
          <mxGeometry relative="1" as="geometry">
            <mxPoint x="192.5" y="630" as="targetPoint" />
          </mxGeometry>
        </mxCell>
        <mxCell id="G7QfSokvVwDWU3bzImGe-27" value="&lt;b&gt;Access System&lt;/b&gt;" style="rounded=0;whiteSpace=wrap;html=1;fillColor=#d5e8d4;strokeColor=#82b366;" parent="1" vertex="1">
          <mxGeometry x="130" y="480" width="125" height="40" as="geometry" />
        </mxCell>
        <mxCell id="G7QfSokvVwDWU3bzImGe-28" value="" style="endArrow=classic;html=1;rounded=0;entryX=0.5;entryY=0;entryDx=0;entryDy=0;" parent="1" target="G7QfSokvVwDWU3bzImGe-27" edge="1">
          <mxGeometry width="50" height="50" relative="1" as="geometry">
            <mxPoint x="190" y="420" as="sourcePoint" />
            <mxPoint x="240" y="370" as="targetPoint" />
          </mxGeometry>
        </mxCell>
        <mxCell id="G7QfSokvVwDWU3bzImGe-29" value="" style="ellipse;whiteSpace=wrap;html=1;aspect=fixed;fillColor=#f8cecc;strokeColor=#b85450;" parent="1" vertex="1">
          <mxGeometry x="315" y="375" width="10" height="10" as="geometry" />
        </mxCell>
        <mxCell id="G7QfSokvVwDWU3bzImGe-31" value="" style="endArrow=classic;html=1;rounded=0;exitX=0.5;exitY=1;exitDx=0;exitDy=0;" parent="1" source="G7QfSokvVwDWU3bzImGe-29" edge="1">
          <mxGeometry width="50" height="50" relative="1" as="geometry">
            <mxPoint x="310" y="400" as="sourcePoint" />
            <mxPoint x="320" y="450" as="targetPoint" />
          </mxGeometry>
        </mxCell>
        <mxCell id="G7QfSokvVwDWU3bzImGe-34" value="" style="endArrow=classic;html=1;rounded=0;exitX=0.422;exitY=0.975;exitDx=0;exitDy=0;exitPerimeter=0;" parent="1" source="G7QfSokvVwDWU3bzImGe-17" edge="1">
          <mxGeometry width="50" height="50" relative="1" as="geometry">
            <mxPoint x="333" y="490" as="sourcePoint" />
            <mxPoint x="316" y="530" as="targetPoint" />
          </mxGeometry>
        </mxCell>
        <mxCell id="G7QfSokvVwDWU3bzImGe-39" value="" style="endArrow=classic;html=1;rounded=0;entryX=0;entryY=0.5;entryDx=0;entryDy=0;" parent="1" source="G7QfSokvVwDWU3bzImGe-44" edge="1">
          <mxGeometry width="50" height="50" relative="1" as="geometry">
            <mxPoint x="325" y="380" as="sourcePoint" />
            <mxPoint x="395" y="379.5" as="targetPoint" />
          </mxGeometry>
        </mxCell>
        <mxCell id="G7QfSokvVwDWU3bzImGe-45" value="" style="endArrow=classic;html=1;rounded=0;entryX=0;entryY=0.5;entryDx=0;entryDy=0;" parent="1" target="G7QfSokvVwDWU3bzImGe-44" edge="1">
          <mxGeometry width="50" height="50" relative="1" as="geometry">
            <mxPoint x="325" y="380" as="sourcePoint" />
            <mxPoint x="395" y="379.5" as="targetPoint" />
          </mxGeometry>
        </mxCell>
        <mxCell id="G7QfSokvVwDWU3bzImGe-54" style="edgeStyle=orthogonalEdgeStyle;rounded=0;orthogonalLoop=1;jettySize=auto;html=1;exitX=0.5;exitY=0;exitDx=0;exitDy=0;entryX=1;entryY=1;entryDx=0;entryDy=0;" parent="1" source="G7QfSokvVwDWU3bzImGe-44" target="G7QfSokvVwDWU3bzImGe-5" edge="1">
          <mxGeometry relative="1" as="geometry">
            <Array as="points">
              <mxPoint x="405" y="250" />
              <mxPoint x="250" y="250" />
            </Array>
          </mxGeometry>
        </mxCell>
        <mxCell id="G7QfSokvVwDWU3bzImGe-44" value="" style="ellipse;whiteSpace=wrap;html=1;aspect=fixed;fillColor=#f8cecc;strokeColor=#b85450;" parent="1" vertex="1">
          <mxGeometry x="400" y="375" width="10" height="10" as="geometry" />
        </mxCell>
        <mxCell id="G7QfSokvVwDWU3bzImGe-109" value="&lt;b&gt;End&lt;/b&gt;" style="ellipse;whiteSpace=wrap;html=1;fillColor=#fff2cc;strokeColor=#d6b656;" parent="1" vertex="1">
          <mxGeometry x="147.5" y="630" width="90" height="50" as="geometry" />
        </mxCell>
        <mxCell id="-zH0hV0j0Uq1G4DISYLY-38" value="&lt;b&gt;Send OTP&lt;/b&gt;" style="rounded=0;whiteSpace=wrap;html=1;fillColor=#d5e8d4;strokeColor=#82b366;" vertex="1" parent="1">
          <mxGeometry x="540" y="139" width="120" height="40" as="geometry" />
        </mxCell>
        <mxCell id="-zH0hV0j0Uq1G4DISYLY-39" value="" style="endArrow=classic;html=1;rounded=0;exitX=0.5;exitY=1;exitDx=0;exitDy=0;entryX=0.449;entryY=0.005;entryDx=0;entryDy=0;entryPerimeter=0;" edge="1" parent="1" source="-zH0hV0j0Uq1G4DISYLY-38">
          <mxGeometry width="50" height="50" relative="1" as="geometry">
            <mxPoint x="670" y="209" as="sourcePoint" />
            <mxPoint x="600.8199999999999" y="219.20000000000005" as="targetPoint" />
          </mxGeometry>
        </mxCell>
        <mxCell id="-zH0hV0j0Uq1G4DISYLY-40" style="edgeStyle=orthogonalEdgeStyle;rounded=0;orthogonalLoop=1;jettySize=auto;html=1;entryX=0.5;entryY=0;entryDx=0;entryDy=0;" edge="1" parent="1" source="-zH0hV0j0Uq1G4DISYLY-42">
          <mxGeometry relative="1" as="geometry">
            <mxPoint x="600" y="329" as="targetPoint" />
          </mxGeometry>
        </mxCell>
        <mxCell id="-zH0hV0j0Uq1G4DISYLY-41" style="edgeStyle=orthogonalEdgeStyle;rounded=0;orthogonalLoop=1;jettySize=auto;html=1;entryX=1;entryY=0.25;entryDx=0;entryDy=0;" edge="1" parent="1" source="-zH0hV0j0Uq1G4DISYLY-42" target="-zH0hV0j0Uq1G4DISYLY-38">
          <mxGeometry relative="1" as="geometry">
            <Array as="points">
              <mxPoint x="680" y="261" />
              <mxPoint x="680" y="149" />
            </Array>
          </mxGeometry>
        </mxCell>
        <mxCell id="-zH0hV0j0Uq1G4DISYLY-42" value="&lt;b&gt;OTP&amp;nbsp;&lt;/b&gt;&lt;div&gt;&lt;b&gt;received&lt;/b&gt;&lt;div&gt;&lt;b&gt;?&lt;/b&gt;&lt;/div&gt;&lt;/div&gt;" style="rhombus;whiteSpace=wrap;html=1;fillColor=#76608a;strokeColor=#432D57;fontColor=#ffffff;" vertex="1" parent="1">
          <mxGeometry x="555" y="221" width="90" height="80" as="geometry" />
        </mxCell>
        <mxCell id="-zH0hV0j0Uq1G4DISYLY-44" style="edgeStyle=orthogonalEdgeStyle;rounded=0;orthogonalLoop=1;jettySize=auto;html=1;entryX=0.5;entryY=0;entryDx=0;entryDy=0;" edge="1" parent="1" source="-zH0hV0j0Uq1G4DISYLY-45" target="-zH0hV0j0Uq1G4DISYLY-47">
          <mxGeometry relative="1" as="geometry" />
        </mxCell>
        <mxCell id="-zH0hV0j0Uq1G4DISYLY-45" value="&lt;b&gt;Enter OTP&lt;/b&gt;" style="shape=parallelogram;perimeter=parallelogramPerimeter;whiteSpace=wrap;html=1;fixedSize=1;fillColor=#dae8fc;strokeColor=#6c8ebf;" vertex="1" parent="1">
          <mxGeometry x="536.25" y="331" width="127.5" height="40" as="geometry" />
        </mxCell>
        <mxCell id="-zH0hV0j0Uq1G4DISYLY-46" style="edgeStyle=orthogonalEdgeStyle;rounded=0;orthogonalLoop=1;jettySize=auto;html=1;entryX=0.5;entryY=0;entryDx=0;entryDy=0;" edge="1" parent="1" source="-zH0hV0j0Uq1G4DISYLY-47" target="-zH0hV0j0Uq1G4DISYLY-50">
          <mxGeometry relative="1" as="geometry" />
        </mxCell>
        <mxCell id="-zH0hV0j0Uq1G4DISYLY-47" value="&lt;b&gt;Correct&lt;/b&gt;&lt;div&gt;&lt;b&gt;?&lt;/b&gt;&lt;/div&gt;" style="rhombus;whiteSpace=wrap;html=1;fillColor=#76608a;strokeColor=#432D57;fontColor=#ffffff;" vertex="1" parent="1">
          <mxGeometry x="555" y="401" width="90" height="80" as="geometry" />
        </mxCell>
        <mxCell id="-zH0hV0j0Uq1G4DISYLY-48" value="&lt;b&gt;YES&lt;/b&gt;&lt;div&gt;&lt;br&gt;&lt;/div&gt;" style="text;html=1;align=center;verticalAlign=middle;whiteSpace=wrap;rounded=0;" vertex="1" parent="1">
          <mxGeometry x="585" y="306" width="60" height="30" as="geometry" />
        </mxCell>
        <mxCell id="-zH0hV0j0Uq1G4DISYLY-62" style="edgeStyle=orthogonalEdgeStyle;rounded=0;orthogonalLoop=1;jettySize=auto;html=1;entryX=0;entryY=0.25;entryDx=0;entryDy=0;" edge="1" parent="1" source="-zH0hV0j0Uq1G4DISYLY-50" target="G7QfSokvVwDWU3bzImGe-5">
          <mxGeometry relative="1" as="geometry">
            <Array as="points">
              <mxPoint x="600" y="705" />
              <mxPoint x="38" y="705" />
              <mxPoint x="38" y="190" />
            </Array>
          </mxGeometry>
        </mxCell>
        <mxCell id="-zH0hV0j0Uq1G4DISYLY-50" value="&lt;b&gt;Recover&lt;/b&gt;" style="shape=parallelogram;perimeter=parallelogramPerimeter;whiteSpace=wrap;html=1;fixedSize=1;fillColor=#dae8fc;strokeColor=#6c8ebf;" vertex="1" parent="1">
          <mxGeometry x="510" y="512" width="180" height="40" as="geometry" />
        </mxCell>
        <mxCell id="-zH0hV0j0Uq1G4DISYLY-53" value="&lt;b&gt;NO&lt;/b&gt;" style="text;html=1;align=center;verticalAlign=middle;whiteSpace=wrap;rounded=0;" vertex="1" parent="1">
          <mxGeometry x="667" y="185" width="60" height="30" as="geometry" />
        </mxCell>
        <mxCell id="-zH0hV0j0Uq1G4DISYLY-54" value="&lt;b&gt;YES&lt;/b&gt;&lt;div&gt;&lt;br&gt;&lt;/div&gt;" style="text;html=1;align=center;verticalAlign=middle;whiteSpace=wrap;rounded=0;" vertex="1" parent="1">
          <mxGeometry x="592" y="486" width="60" height="30" as="geometry" />
        </mxCell>
        <mxCell id="-zH0hV0j0Uq1G4DISYLY-57" style="edgeStyle=orthogonalEdgeStyle;rounded=0;orthogonalLoop=1;jettySize=auto;html=1;exitX=0;exitY=0.5;exitDx=0;exitDy=0;entryX=0.578;entryY=0.995;entryDx=0;entryDy=0;entryPerimeter=0;" edge="1" parent="1" source="-zH0hV0j0Uq1G4DISYLY-47" target="G7QfSokvVwDWU3bzImGe-20">
          <mxGeometry relative="1" as="geometry" />
        </mxCell>
        <mxCell id="-zH0hV0j0Uq1G4DISYLY-58" value="&lt;b&gt;NO&lt;/b&gt;" style="text;html=1;align=center;verticalAlign=middle;whiteSpace=wrap;rounded=0;" vertex="1" parent="1">
          <mxGeometry x="487" y="410" width="60" height="30" as="geometry" />
        </mxCell>
        <mxCell id="-zH0hV0j0Uq1G4DISYLY-61" style="edgeStyle=orthogonalEdgeStyle;rounded=0;orthogonalLoop=1;jettySize=auto;html=1;exitX=0.5;exitY=1;exitDx=0;exitDy=0;" edge="1" parent="1">
          <mxGeometry relative="1" as="geometry">
            <mxPoint x="600" y="627" as="sourcePoint" />
            <mxPoint x="600" y="627" as="targetPoint" />
          </mxGeometry>
        </mxCell>
      </root>
    </mxGraphModel>
  </diagram>
</mxfile>
